<?xml version="1.0" encoding="UTF-8" standalone="no"?>
<!-- Created with Inkscape (http://www.inkscape.org/) -->

<svg
   width="192"
   height="192"
   viewBox="0 0 50.799999 50.8"
   version="1.1"
   id="svg1"
   inkscape:version="1.4.4 (dcaf3e7d9e, 2026-05-05)"
   sodipodi:docname="icon.svg"
   inkscape:export-filename="touch-icon.png"
   inkscape:export-xdpi="96"
   inkscape:export-ydpi="96"
   xmlns:inkscape="http://www.inkscape.org/namespaces/inkscape"
   xmlns:sodipodi="http://sodipodi.sourceforge.net/DTD/sodipodi-0.dtd"
   xmlns="http://www.w3.org/2000/svg"
   xmlns:svg="http://www.w3.org/2000/svg">
  <sodipodi:namedview
     id="namedview1"
     pagecolor="#505050"
     bordercolor="#ffffff"
     borderopacity="1"
     inkscape:showpageshadow="0"
     inkscape:pageopacity="0"
     inkscape:pagecheckerboard="1"
     inkscape:deskcolor="#d1d1d1"
     inkscape:document-units="mm"
     inkscape:zoom="1.4218013"
     inkscape:cx="111.12664"
     inkscape:cy="35.166658"
     inkscape:window-width="1829"
     inkscape:window-height="957"
     inkscape:window-x="0"
     inkscape:window-y="0"
     inkscape:window-maximized="1"
     inkscape:current-layer="text1" />
  <defs
     id="defs1" />
  <g
     inkscape:label="Ebene 1"
     inkscape:groupmode="layer"
     id="layer1">
    <path
       d="M -4.8410482,-2.6613363 V 55.910282 H 57.890007 V -2.6613363 Z"
       style="fill:#000000;stroke-width:1.85208"
       id="path1" />
    <g
       id="text1"
       style="font-size:17.8047px;font-family:'Adwaita Mono';-inkscape-font-specification:'Adwaita Mono';stroke-width:1.66918"
       aria-label="#&gt;&#10;.dbt">
      <path
         style="fill:#00cc00"
         d="M 5.8415265,20.36127 6.5003004,17.281057 H 4.9334867 V 15.963509 H 6.7851756 L 7.5507778,12.313546 H 5.8237218 V 10.995998 H 7.835653 L 8.4944269,7.9157846 h 1.4065714 l -0.658774,3.0802134 h 2.3858297 l 0.658774,-3.0802134 h 1.424376 L 13.05243,10.995998 h 1.566814 v 1.317548 h -1.851689 l -0.765602,3.649963 h 1.727056 v 1.317548 H 11.717078 L 11.058304,20.36127 H 9.6517325 L 10.310506,17.281057 H 7.9246765 L 7.2659026,20.36127 Z m 4.7360505,-4.397761 0.783407,-3.649963 H 8.9751538 L 8.191747,15.963509 Z m 6.480918,3.845816 -0.747798,-1.068282 6.730177,-4.112886 -6.730177,-4.112886 0.747798,-1.0682822 7.175294,4.4511752 v 1.459986 z"
         id="path2" />
      <path
         style="fill:#00cc00"
         d="m 9.7763654,43.080069 q -0.2848752,0 -0.5519458,-0.08902 -0.2670705,-0.07122 -0.4807269,-0.26707 -0.1958517,-0.213657 -0.2848752,-0.480727 -0.071219,-0.267071 -0.071219,-0.551946 0,-0.284875 0.071219,-0.551946 0.089023,-0.26707 0.2848752,-0.462922 0.2136564,-0.213656 0.4807269,-0.284875 0.2670706,-0.08902 0.5519458,-0.08902 0.2848756,0 0.5519456,0.08902 0.267071,0.07122 0.462922,0.284875 0.213657,0.195852 0.284876,0.462922 0.08902,0.267071 0.08902,0.551946 0,0.284875 -0.08902,0.551946 -0.07122,0.26707 -0.284876,0.480727 -0.195851,0.195851 -0.462922,0.26707 -0.26707,0.08902 -0.5519456,0.08902 z m 10.0240526,0 q -0.480726,0 -0.961453,-0.124633 -0.462923,-0.106828 -0.854626,-0.373899 -0.391703,-0.26707 -0.694383,-0.658774 -0.284876,-0.391703 -0.462923,-0.836821 -0.160242,-0.445117 -0.231461,-0.925844 -0.05341,-0.480727 -0.05341,-0.961454 v -1.78047 q 0,-0.480727 0.05341,-0.961454 0.07122,-0.480727 0.231461,-0.925844 0.178047,-0.445118 0.462923,-0.836821 0.30268,-0.391704 0.694383,-0.658774 0.391703,-0.267071 0.854626,-0.373899 0.480727,-0.124633 0.961453,-0.124633 0.480727,0 0.94365,0.106828 0.480727,0.106828 0.87243,0.373899 0.391703,0.267071 0.676579,0.658774 0.302679,0.373899 0.462922,0.801211 v -5.626285 h 1.47779 v 13.086455 h -1.47779 v -1.798275 q -0.160243,0.427313 -0.462922,0.819017 -0.284876,0.373898 -0.676579,0.640969 -0.391703,0.26707 -0.87243,0.373899 -0.462923,0.106828 -0.94365,0.106828 z m 0.587556,-1.317548 q 0.338289,0 0.658773,-0.05341 0.33829,-0.07122 0.623165,-0.231461 0.284875,-0.178047 0.498532,-0.427313 0.231461,-0.249266 0.356094,-0.551946 0.142437,-0.30268 0.178047,-0.623164 0.05341,-0.33829 0.05341,-0.676579 v -1.78047 q 0,-0.338289 -0.05341,-0.658774 -0.03561,-0.338289 -0.178047,-0.640969 -0.124633,-0.30268 -0.356094,-0.551946 -0.213657,-0.249266 -0.498532,-0.409508 -0.284875,-0.178047 -0.623165,-0.231461 -0.320484,-0.07122 -0.658773,-0.07122 -0.33829,0 -0.676579,0.07122 -0.320485,0.05341 -0.60536,0.231461 -0.284875,0.160242 -0.516336,0.409508 -0.213657,0.249266 -0.356094,0.551946 -0.124633,0.30268 -0.178047,0.640969 -0.03561,0.320485 -0.03561,0.658774 v 1.78047 q 0,0.338289 0.03561,0.676579 0.05341,0.320484 0.178047,0.623164 0.142437,0.30268 0.356094,0.551946 0.231461,0.249266 0.516336,0.427313 0.284875,0.160242 0.60536,0.231461 0.338289,0.05341 0.676579,0.05341 z m 11.412819,1.317548 q -0.480727,0 -0.961454,-0.106828 -0.462922,-0.106829 -0.854625,-0.373899 -0.391704,-0.267071 -0.694384,-0.640969 -0.284875,-0.391704 -0.445117,-0.819017 v 1.798275 h -1.47779 V 29.851176 h 1.47779 v 5.626285 q 0.160242,-0.427312 0.445117,-0.801211 0.30268,-0.391703 0.694384,-0.658774 0.391703,-0.267071 0.854625,-0.373899 0.480727,-0.106828 0.961454,-0.106828 0.480727,0 0.943649,0.124633 0.480727,0.106828 0.872431,0.373899 0.391703,0.26707 0.676578,0.658774 0.30268,0.391703 0.462923,0.836821 0.178047,0.445117 0.231461,0.925844 0.07122,0.480727 0.07122,0.961454 v 1.78047 q 0,0.480727 -0.07122,0.961454 -0.05341,0.480727 -0.231461,0.925844 -0.160243,0.445118 -0.462923,0.836821 -0.284875,0.391704 -0.676578,0.658774 -0.391704,0.267071 -0.872431,0.373899 -0.462922,0.124633 -0.943649,0.124633 z m -0.587555,-1.317548 q 0.338289,0 0.658774,-0.05341 0.338289,-0.07122 0.623165,-0.231461 0.284875,-0.178047 0.498531,-0.427313 0.231461,-0.249266 0.356094,-0.551946 0.142438,-0.30268 0.178047,-0.623164 0.05341,-0.33829 0.05341,-0.676579 v -1.78047 q 0,-0.338289 -0.05341,-0.658774 -0.03561,-0.338289 -0.178047,-0.640969 -0.124633,-0.30268 -0.356094,-0.551946 -0.213656,-0.249266 -0.498531,-0.409508 -0.284876,-0.178047 -0.623165,-0.231461 -0.320485,-0.07122 -0.658774,-0.07122 -0.338289,0 -0.676578,0.07122 -0.320485,0.05341 -0.60536,0.231461 -0.284876,0.160242 -0.516337,0.409508 -0.213656,0.249266 -0.356094,0.551946 -0.124633,0.30268 -0.178047,0.640969 -0.03561,0.320485 -0.03561,0.658774 v 1.78047 q 0,0.338289 0.03561,0.676579 0.05341,0.320484 0.178047,0.623164 0.142438,0.30268 0.356094,0.551946 0.231461,0.249266 0.516337,0.427313 0.284875,0.160242 0.60536,0.231461 0.338289,0.05341 0.676578,0.05341 z m 14.386205,1.17511 h -1.922908 q -0.409508,0 -0.819016,-0.07122 -0.391703,-0.07122 -0.765602,-0.249265 -0.356094,-0.178047 -0.640969,-0.462923 -0.284876,-0.284875 -0.462923,-0.640969 -0.178047,-0.373899 -0.249265,-0.765602 -0.07122,-0.409508 -0.07122,-0.819016 V 34.97893 H 38.05025 v -1.299743 h 2.617291 v -3.828011 h 1.47779 v 3.828011 h 3.454112 v 1.299743 h -3.454112 v 4.949707 q 0,0.338289 0.07122,0.658774 0.08902,0.320484 0.284875,0.56975 0.213656,0.249266 0.534141,0.356094 0.320485,0.106828 0.640969,0.106828 h 1.922908 z"
         id="path3" />
    </g>
  </g>
</svg>
